<svg version="1.1" id="Layer_1" xmlns="http://www.w3.org/2000/svg" xmlns:xlink="http://www.w3.org/1999/xlink" x="0px" y="0px"
	 width="100%" viewBox="0 0 784 784" enable-background="new 0 0 784 784" xml:space="preserve">
<path fill="#000000" opacity="1.000000" stroke="none" 
	d="
M366.089966,655.213623 
	C342.868835,650.133057 321.300110,642.171265 301.726959,629.139526 
	C262.962799,603.330444 236.158890,568.076355 219.728363,524.845764 
	C207.270828,492.068573 201.441666,457.919067 203.921722,422.947906 
	C208.217911,362.367035 229.298813,308.846497 274.179962,266.352600 
	C292.748047,248.772171 313.842865,234.958023 338.186432,226.503448 
	C339.093109,226.188568 339.918060,225.638428 340.979492,225.096680 
	C337.646332,219.669159 333.937073,214.699707 331.342499,209.204010 
	C323.505524,192.604156 319.932007,175.345993 323.567871,156.864624 
	C326.285004,143.053268 330.780121,130.204285 339.886566,119.278343 
	C341.483032,117.362900 341.440552,115.507950 340.810974,113.257172 
	C338.090942,103.532982 339.944214,94.490494 345.378235,86.140762 
	C346.805115,83.948204 347.739838,81.989151 346.903625,79.218285 
	C343.459564,67.805786 352.601013,48.801403 366.601257,46.901096 
	C370.854462,46.323799 373.363983,44.759541 374.867157,40.070652 
	C376.937744,33.612026 382.210480,30.030642 389.094910,28.155361 
	C401.071564,24.892986 411.668488,26.369961 421.236053,34.535793 
	C425.708862,38.353306 428.586578,42.995651 430.229462,48.610889 
	C434.650085,63.720085 433.914093,78.855446 430.917175,94.069313 
	C430.243683,97.488228 430.175018,101.023315 429.572632,104.460182 
	C429.139709,106.930046 430.018280,108.649727 431.795380,110.152245 
	C441.849884,118.653282 448.561127,129.450500 453.175629,141.627365 
	C455.232117,147.054153 460.499542,148.260544 464.791687,150.341141 
	C473.038208,154.338562 481.031952,158.788681 489.001556,163.251694 
	C503.328156,171.274582 503.230408,192.268661 488.862122,200.230530 
	C477.957428,206.273163 466.787964,211.841171 455.691010,217.532089 
	C451.852020,219.500854 447.636810,220.160934 442.051697,220.105072 
	C446.566895,222.900620 450.596436,223.309937 454.286346,224.467087 
	C485.793060,234.347595 512.016174,252.469635 534.230530,276.432434 
	C565.716003,310.396088 583.987122,350.801727 591.403809,396.379608 
	C593.816101,411.203796 595.725281,426.072937 595.123657,441.048828 
	C593.435364,483.077179 583.720459,522.908813 562.311829,559.608643 
	C543.677002,591.553406 518.618408,617.109131 486.585846,635.223755 
	C456.412842,652.286865 423.611786,660.297668 388.744507,658.200073 
	C381.300751,657.752380 373.918182,656.286865 366.089966,655.213623 
M367.002533,239.470139 
	C338.675812,245.935425 313.284912,258.445526 291.515137,277.638031 
	C256.667725,308.359985 235.724747,347.272705 226.310760,392.458740 
	C220.508804,420.307495 220.271698,448.454346 225.444519,476.393951 
	C235.123596,528.672852 259.164368,572.779297 302.568909,604.651855 
	C350.390869,639.768250 402.929047,647.075195 458.177490,625.812744 
	C499.946014,609.737976 530.161560,579.564270 551.065979,540.317444 
	C569.445312,505.811340 577.443054,468.786102 576.049866,429.641602 
	C573.933533,370.179962 552.477661,319.427856 508.352661,279.019897 
	C486.808411,259.290527 461.494324,246.323181 432.859161,240.028000 
	C411.227325,235.272415 389.558929,235.568283 367.002533,239.470139 
M348.422668,140.921600 
	C336.155243,164.559418 339.309082,192.253479 356.424469,211.186005 
	C374.184296,230.831406 402.879211,231.834808 421.882294,213.474915 
	C441.110748,194.897324 445.405975,163.906754 431.951904,140.821747 
	C420.233490,120.714806 400.052673,111.274773 379.379730,116.311417 
	C365.580688,119.673347 356.025421,128.512955 348.422668,140.921600 
M469.733337,187.187912 
	C472.900116,185.487076 476.066864,183.786224 480.295135,181.515274 
	C469.294647,175.752762 459.654297,169.889511 448.767944,165.161209 
	C447.010437,176.513931 451.095734,187.241592 447.081329,199.004150 
	C455.327301,194.722473 462.215698,191.145691 469.733337,187.187912 
M392.765839,81.197464 
	C392.350006,76.304222 388.391846,73.107849 384.293610,74.355026 
	C382.528595,74.892166 381.405884,75.865936 381.685852,77.927185 
	C382.346313,82.789795 388.447479,85.048965 392.765839,81.197464 
z"/>
<path fill="#000000" opacity="1.000000" stroke="none" 
	d="
M225.693008,744.099609 
	C221.514084,736.422668 220.022369,728.569092 223.107422,720.722839 
	C228.226486,707.703369 241.842819,705.674316 250.851135,716.247620 
	C251.381927,716.870605 251.681259,717.690735 251.857544,718.006165 
	C254.191986,717.479614 254.733856,716.137146 255.625549,715.202515 
	C259.640320,710.994690 264.433197,708.456238 270.310638,709.693542 
	C276.877228,711.075745 281.091309,715.465332 283.091217,721.774475 
	C285.550751,729.533936 284.323547,736.904175 279.986176,743.742920 
	C277.665436,747.402039 274.918762,750.739075 271.905182,753.857971 
	C268.555176,757.325073 265.123291,760.722473 261.936096,764.334656 
	C258.905518,767.769348 256.144836,771.442200 252.640045,775.785339 
	C244.936111,763.707947 233.629227,755.653076 225.693008,744.099609 
z"/>
<path fill="#000000" opacity="1.000000" stroke="none" 
	d="
M416.910706,742.093628 
	C416.933350,746.411072 416.930023,750.242920 416.975281,754.074219 
	C417.010590,757.065552 416.681122,760.198181 420.665161,761.283691 
	C421.895020,761.618835 422.227722,762.928894 421.966522,764.203491 
	C421.737091,765.323547 420.922424,766.014648 419.875671,766.026001 
	C415.051483,766.078491 410.224976,766.070801 405.401947,765.965088 
	C404.196808,765.938660 403.132111,765.276672 403.006592,763.859314 
	C402.886749,762.506042 403.657318,761.441589 404.841187,761.217590 
	C408.665802,760.494080 408.723938,757.779663 408.679138,754.778381 
	C408.594635,749.115173 408.649170,743.449951 408.648682,737.785522 
	C408.648438,734.946411 408.167206,732.461121 404.809235,731.679565 
	C403.394043,731.350220 402.167328,730.292480 402.640381,728.813660 
	C404.128876,724.160278 408.845001,723.685852 412.445038,722.022400 
	C415.284180,720.710571 415.271027,723.879028 416.108154,725.491882 
	C416.322235,725.904419 416.557007,726.306152 416.897980,726.921692 
	C418.642822,725.756775 420.241302,724.600037 421.923401,723.581482 
	C430.331665,718.489868 438.070953,721.858215 439.858612,731.505981 
	C440.339355,734.100464 440.249817,736.812927 440.292999,739.473389 
	C440.376862,744.636902 440.297943,749.803650 440.429932,754.965393 
	C440.494385,757.485474 440.765381,760.020691 443.825684,760.982361 
	C445.324860,761.453491 445.752625,762.722900 445.577240,764.184814 
	C445.371735,765.897827 444.140167,766.254456 442.686279,766.241943 
	C438.355682,766.204773 434.024292,766.196472 429.695160,766.094788 
	C428.336548,766.062866 426.941162,765.721924 426.594879,764.116638 
	C426.198730,762.279968 427.241760,761.191345 428.916321,760.916870 
	C431.846466,760.436523 432.020386,758.374084 432.011322,756.083435 
	C431.985565,749.586365 431.987488,743.089233 431.967590,736.592102 
	C431.955719,732.713257 430.942780,729.498901 426.295929,729.366638 
	C421.587708,729.232666 417.202393,732.967651 416.972137,737.110596 
	C416.889008,738.606323 416.924347,740.108582 416.910706,742.093628 
z"/>
<path fill="#000000" opacity="1.000000" stroke="none" 
	d="
M524.757202,763.325073 
	C523.822205,767.485291 519.283020,768.707825 514.701233,766.114380 
	C513.022522,765.164062 511.662811,763.650330 509.717621,762.026367 
	C509.884796,764.984619 509.004425,767.138062 506.071625,767.600159 
	C498.473206,768.797302 492.740173,766.793335 490.158508,762.090149 
	C487.134857,756.581787 488.488861,749.816284 493.478638,745.938232 
	C497.346191,742.932434 501.750580,740.943726 506.447937,739.658752 
	C509.541901,738.812256 510.037933,736.716248 509.868683,733.929382 
	C509.682404,730.861084 508.925751,728.292725 505.595490,727.396851 
	C501.997437,726.428955 499.993652,727.799133 499.088745,731.488586 
	C498.446259,734.108215 498.133118,737.428894 494.411560,737.762085 
	C492.689880,737.916260 491.123474,737.103333 490.358490,735.373535 
	C488.927795,732.138184 490.450653,729.506348 492.343109,727.109924 
	C496.300171,722.099182 503.949371,719.930115 509.967712,721.960388 
	C515.172058,723.716064 517.990112,728.131836 518.203369,735.480469 
	C518.382141,741.641602 518.221863,747.812012 518.277710,753.977661 
	C518.295471,755.934692 517.966492,757.992065 519.300293,759.917175 
	C521.087830,760.936829 525.734680,757.282654 524.757202,763.325073 
M506.637878,758.129333 
	C510.387939,754.869446 511.049713,750.925537 508.799774,744.811829 
	C505.256561,745.125854 502.192993,746.528015 499.652527,749.039307 
	C497.161682,751.501526 496.204254,754.510376 498.176636,757.521484 
	C500.161194,760.551208 503.104095,760.348083 506.637878,758.129333 
z"/>
<path fill="#000000" opacity="1.000000" stroke="none" 
	d="
M615.275269,745.713623 
	C608.939453,745.697388 602.996460,744.528809 596.776306,745.711182 
	C596.451843,751.189453 597.776611,755.753601 602.525879,758.661438 
	C606.593750,761.151917 611.502075,760.111145 616.157715,756.103943 
	C617.149902,755.250122 618.007141,753.866333 619.525757,754.684692 
	C621.277039,755.628357 620.414795,757.182190 620.234558,758.662903 
	C619.735413,762.763123 618.773499,766.486389 614.240784,767.875000 
	C602.362305,771.514038 589.947327,763.722351 587.966553,751.027100 
	C586.794556,743.515564 587.293518,736.101379 591.704102,729.380005 
	C596.353088,722.295349 605.382263,719.325378 612.639099,722.745483 
	C618.912842,725.702332 623.248901,736.657043 621.084412,743.592102 
	C620.071411,746.837769 617.505737,745.073547 615.275269,745.713623 
M610.328674,729.183411 
	C607.204712,726.563354 603.869873,726.470764 600.894165,729.101013 
	C598.535706,731.185669 595.948608,734.402710 596.928223,737.166321 
	C598.163635,740.651489 602.420532,738.477417 605.318359,739.018127 
	C605.478271,739.047974 605.649353,739.036621 605.813293,739.022339 
	C608.185120,738.815979 611.119995,739.866882 612.477905,737.041321 
	C613.749451,734.395508 612.658081,731.890442 610.328674,729.183411 
z"/>
<path fill="#000000" opacity="1.000000" stroke="none" 
	d="
M357.934265,758.613831 
	C357.362793,766.228333 357.362885,766.264099 350.252075,766.282532 
	C341.099548,766.306335 331.946472,766.310486 322.794586,766.220215 
	C320.591797,766.198486 317.651276,766.849426 317.185791,763.569092 
	C316.777466,760.691528 319.475006,760.814941 321.296387,760.313782 
	C323.904938,759.596130 324.516174,757.574341 324.522430,755.305176 
	C324.558228,742.325745 324.544312,729.346130 324.507507,716.366699 
	C324.499023,713.385742 323.509552,711.214355 319.981018,711.054626 
	C318.318939,710.979370 317.168152,709.853577 317.243256,708.086548 
	C317.328522,706.079651 318.913879,705.839233 320.486298,705.828186 
	C325.977631,705.789551 331.469238,705.764526 336.960663,705.774658 
	C338.587158,705.777649 339.989624,706.267517 340.103394,708.210876 
	C340.213348,710.089233 338.996979,711.008728 337.353882,711.101318 
	C333.752716,711.304199 333.135040,713.488281 333.156555,716.535400 
	C333.246979,729.348328 333.314087,742.162964 333.188843,754.974976 
	C333.153076,758.636230 334.471313,760.237244 338.134155,759.916016 
	C339.455475,759.800110 340.795319,759.905762 342.126434,759.889160 
	C348.664429,759.807617 349.998108,761.153748 351.126312,752.724731 
	C351.400787,750.674011 351.401215,747.619751 354.936127,747.966431 
	C358.632751,748.328979 357.979828,751.292053 358.089539,753.687805 
	C358.157837,755.178894 358.006836,756.679993 357.934265,758.613831 
z"/>
<path fill="#000000" opacity="1.000000" stroke="none" 
	d="
M386.817383,763.849487 
	C385.252533,761.319336 384.318207,763.083679 383.201752,763.927917 
	C376.723053,768.826904 369.949188,768.547852 366.070129,763.260498 
	C361.706726,757.312927 363.193390,749.529663 369.698395,744.936157 
	C373.267700,742.415649 377.381012,740.939087 381.514130,739.680664 
	C385.562927,738.447937 385.119934,735.477417 384.770142,732.445557 
	C384.389893,729.149597 382.475433,727.466980 379.189606,727.140564 
	C375.663330,726.790222 374.530701,728.832092 374.052917,731.830994 
	C373.874329,732.951904 373.327698,734.047607 372.788635,735.070435 
	C371.744904,737.050903 370.082153,738.104492 367.843964,737.385315 
	C365.421448,736.606934 364.605164,734.706360 364.937500,732.264160 
	C365.718628,726.523926 372.202148,721.793579 379.904877,721.337158 
	C386.356750,720.954895 390.818329,724.168091 392.337036,730.461243 
	C394.200134,738.181641 392.837494,746.050659 393.284637,753.837952 
	C393.404114,755.918457 392.641571,758.204224 394.462219,760.033875 
	C396.206085,760.877014 399.709198,757.580566 399.847351,761.760071 
	C399.943329,764.662903 397.567596,766.397888 394.617798,766.903137 
	C391.540955,767.430176 389.077728,766.300476 386.817383,763.849487 
M372.201721,755.262512 
	C374.031189,759.885559 376.917206,761.048889 380.980225,758.800842 
	C385.374390,756.369629 386.449585,751.204224 383.889801,744.822754 
	C376.370941,745.779907 373.025574,748.523987 372.201721,755.262512 
z"/>
<path fill="#000000" opacity="1.000000" stroke="none" 
	d="
M547.142700,740.709351 
	C552.028320,743.364624 555.546753,746.656982 556.596985,752.049744 
	C557.686523,757.644836 554.550659,763.723755 549.268799,765.869019 
	C544.822083,767.675110 540.229492,767.995422 535.562988,766.921326 
	C529.146667,765.444336 527.537659,763.107788 528.330688,756.684509 
	C528.533325,755.043396 528.327209,753.202942 530.654907,752.915771 
	C532.924683,752.635742 533.774658,753.871643 534.433655,755.917358 
	C536.198303,761.395142 539.455200,762.925781 544.570679,761.026733 
	C546.536926,760.296692 548.144287,759.200256 548.588745,756.992310 
	C549.075378,754.574768 548.080200,752.608826 546.106262,751.440002 
	C543.256470,749.752502 540.197449,748.420288 537.240479,746.911499 
	C529.339844,742.880127 526.410950,734.919739 530.391357,728.332092 
	C534.862366,720.932434 545.549072,718.742737 552.300537,723.843079 
	C554.253113,725.318237 555.242676,732.692627 553.726501,734.469604 
	C552.098694,736.377441 549.253113,735.270203 548.439880,731.980469 
	C547.567627,728.451843 545.703857,726.817200 542.125244,727.172668 
	C539.837341,727.400024 537.794617,728.175720 537.266724,730.696838 
	C536.731628,733.252747 536.862610,735.779907 539.587585,737.178894 
	C541.948547,738.390930 544.399048,739.428772 547.142700,740.709351 
z"/>
<path fill="#000000" opacity="1.000000" stroke="none" 
	d="
M179.546600,711.509399 
	C176.766220,712.729431 177.288467,714.942688 177.283981,716.857117 
	C177.254288,729.520325 177.367615,742.184448 177.251801,754.846558 
	C177.221527,758.157104 177.904984,760.419739 181.660583,760.634644 
	C183.426544,760.735596 184.445847,761.614075 184.338257,763.500549 
	C184.231033,765.380432 183.037994,766.143982 181.351822,766.162415 
	C175.704239,766.224182 170.060547,767.112671 164.404922,766.198547 
	C162.804901,765.939880 161.401978,765.501343 161.192551,763.667114 
	C160.980347,761.808594 162.144348,760.901611 163.812866,760.660889 
	C167.095810,760.187134 168.092041,758.245117 168.106247,755.087036 
	C168.160141,743.103149 168.445755,731.120422 168.538773,719.136414 
	C168.568665,715.282288 168.726730,711.225769 163.147079,710.752258 
	C161.673904,710.627258 161.026428,709.143982 161.376678,707.659119 
	C161.756271,706.049622 163.153168,705.836182 164.536514,705.825623 
	C169.534790,705.787476 174.533478,705.742493 179.531570,705.772217 
	C181.469727,705.783752 183.906448,705.367432 184.115479,708.278198 
	C184.324768,711.192688 181.870697,711.064087 179.546600,711.509399 
z"/>
<path fill="#000000" opacity="1.000000" stroke="none" 
	d="
M479.791199,737.713867 
	C475.860474,737.445923 475.056458,734.659790 474.161896,731.927246 
	C472.452942,726.707153 468.272888,725.512573 464.006012,729.004578 
	C457.231140,734.549133 457.124329,752.014038 463.830078,757.779358 
	C467.713074,761.118042 474.175629,760.578613 478.355560,756.576965 
	C479.585693,755.399414 480.602203,752.862915 482.655914,754.499146 
	C484.644714,756.083618 482.791412,758.102234 482.130707,759.914490 
	C481.109131,762.716675 477.804382,764.053772 477.695221,767.545288 
	C475.033234,767.545288 472.561157,767.433289 470.102509,767.566956 
	C463.593140,767.920959 458.457764,765.617249 454.741302,760.156128 
	C448.813080,751.444885 449.217590,736.406860 455.684723,728.140259 
	C463.308502,718.394958 477.757812,719.327698 482.496887,729.883972 
	C483.952698,733.126770 484.169891,736.052063 479.791199,737.713867 
z"/>
<path fill="#000000" opacity="1.000000" stroke="none" 
	d="
M656.082214,724.138184 
	C657.627075,730.555298 654.643921,733.560791 648.702759,731.477051 
	C645.535217,730.366028 644.519653,731.639526 643.380676,733.936890 
	C639.544373,741.674683 641.140198,749.888306 641.263184,757.961365 
	C641.294495,760.018860 643.065186,760.486877 644.748474,760.917847 
	C647.010193,761.497070 647.481323,763.183960 646.990906,765.192871 
	C646.467590,767.336670 645.084106,767.382324 643.140808,766.885193 
	C639.102539,765.852112 634.894104,767.317749 630.794678,766.264954 
	C629.188171,765.852356 627.312744,766.010681 626.974304,763.840332 
	C626.681396,761.962219 627.960571,761.166626 629.536560,760.756958 
	C632.172363,760.071777 632.655457,758.102783 632.646057,755.760742 
	C632.621948,749.772949 632.676636,743.784546 632.617249,737.797241 
	C632.589722,735.017212 632.013123,732.830933 628.682800,731.764709 
	C625.318787,730.687805 625.277893,728.021729 628.235107,725.905273 
	C629.308594,725.136963 630.542786,724.585693 631.727234,723.981567 
	C638.845215,720.350830 638.988647,720.423157 640.589111,728.688232 
	C643.453857,725.153992 646.063171,721.530701 650.786011,721.169128 
	C652.904724,721.006958 654.608093,722.111206 656.082214,724.138184 
z"/>
<path fill="#000000" opacity="1.000000" stroke="none" 
	d="
M564.266724,729.820679 
	C561.930725,729.082031 559.242065,729.386230 559.144226,726.313232 
	C559.046997,723.260437 561.521179,723.143555 563.656799,722.802002 
	C565.653687,722.482605 566.400452,721.145142 566.640564,719.341675 
	C566.838013,717.859314 566.984314,716.367920 567.244446,714.896667 
	C567.642578,712.645203 568.310181,710.592590 571.257751,710.841187 
	C574.127991,711.083252 574.197205,713.304993 574.027954,715.264832 
	C573.591797,720.313477 574.499939,723.844238 580.809570,722.948242 
	C582.708679,722.678589 583.934509,723.766235 584.007446,725.873169 
	C584.088501,728.218445 582.849792,729.416565 580.673462,729.175659 
	C574.539001,728.496765 573.588684,731.866943 573.861389,736.952759 
	C574.181641,742.925354 573.846924,748.930237 574.031494,754.913818 
	C574.195557,760.231750 575.261230,760.941589 580.353821,759.438171 
	C583.559692,758.491699 584.615784,760.102234 583.819580,762.683289 
	C583.355713,764.187073 583.147827,765.783813 582.705139,767.161072 
	C582.376221,767.312561 582.222473,767.449890 582.078308,767.440369 
	C565.985168,766.383301 565.802368,766.009705 565.588501,749.708435 
	C565.502441,743.149170 566.896606,736.475586 564.266724,729.820679 
z"/>
<path fill="#000000" opacity="1.000000" stroke="none" 
	d="
M369.893616,467.092224 
	C350.616516,467.066162 331.822266,466.935120 313.030365,467.088013 
	C308.423889,467.125488 306.489868,465.884430 306.630432,460.894623 
	C306.958160,449.261719 306.888916,437.611206 306.681702,425.973114 
	C306.606689,421.760773 308.192871,420.548096 312.231750,420.573334 
	C332.679291,420.701172 353.129730,420.728729 373.575531,420.485474 
	C378.032471,420.432465 378.989716,422.362854 378.962616,426.125488 
	C378.884674,436.935242 378.950836,447.745880 378.920319,458.556061 
	C378.896301,467.078003 378.869934,467.077942 369.893616,467.092224 
M344.499939,456.717987 
	C350.995483,456.698242 357.491486,456.625885 363.986359,456.684021 
	C366.684418,456.708191 367.990112,455.649170 367.964478,452.869995 
	C367.909210,446.874847 367.928284,440.878632 367.964417,434.883179 
	C367.981506,432.050476 366.729431,430.441162 363.824249,430.439423 
	C349.667725,430.430908 335.511169,430.441528 321.354706,430.477112 
	C318.155396,430.485168 317.082184,432.314148 317.142944,435.342316 
	C317.253174,440.836304 317.316345,446.339539 317.116028,451.828552 
	C316.983124,455.470306 318.281891,456.904541 322.016296,456.794250 
	C329.172028,456.582886 336.338135,456.723022 344.499939,456.717987 
z"/>
<path fill="#000000" opacity="1.000000" stroke="none" 
	d="
M473.944458,464.160309 
	C459.158813,469.687622 444.600037,469.850159 430.085876,464.896210 
	C419.297699,461.213989 413.725616,453.672546 413.656403,443.556122 
	C413.584106,432.993866 418.916504,425.442993 429.938080,421.617035 
	C444.611359,416.523468 459.409027,416.620361 473.862427,422.448700 
	C482.727448,426.023529 488.378479,432.690063 488.630341,442.558716 
	C488.892395,452.827393 483.362244,459.722321 473.944458,464.160309 
M436.463989,456.160645 
	C443.557129,458.631104 450.915894,458.305664 458.178284,457.735474 
	C463.636169,457.306885 469.044769,455.921387 473.376923,452.152679 
	C479.811890,446.554688 479.167755,437.871338 472.026520,433.199677 
	C467.898193,430.498993 463.270813,429.270721 458.427002,428.732819 
	C449.739502,427.768036 441.116272,427.893555 432.979187,431.489716 
	C428.019104,433.681763 424.425781,437.256683 424.324829,443.194855 
	C424.226227,448.991180 427.760376,452.262878 432.465485,454.651672 
	C433.496216,455.174988 434.623627,455.507812 436.463989,456.160645 
z"/>
<path fill="#000000" opacity="1.000000" stroke="none" 
	d="
M447.068512,357.987213 
	C445.582825,357.986481 444.576599,358.059052 443.585785,357.966675 
	C439.587769,357.593994 437.926605,359.106476 438.055695,363.374054 
	C438.425018,375.581726 444.318085,384.867310 453.001373,392.716156 
	C455.328094,394.819305 457.972107,396.725128 460.771362,398.115875 
	C464.990082,400.211914 463.393860,402.620331 461.831573,405.382568 
	C460.232880,408.209045 458.628418,409.831665 455.181305,407.588959 
	C447.816833,402.797607 441.505615,397.013397 436.782562,389.565704 
	C435.459900,387.480042 434.141296,385.391724 432.472229,382.753662 
	C428.405182,392.458679 422.428925,400.064056 414.682861,406.276031 
	C413.125671,407.524841 411.585693,408.804718 409.949982,409.944214 
	C405.046417,413.360260 400.755707,411.480011 399.748993,405.607452 
	C399.323517,403.125610 401.162689,402.521179 402.694214,401.583771 
	C412.347443,395.675232 419.507629,387.574249 424.136627,377.236298 
	C426.215820,372.592743 426.765717,367.667664 427.012054,362.658966 
	C427.182343,359.196838 425.570160,357.905701 422.223938,357.966675 
	C416.897522,358.063690 411.564270,357.821838 406.239410,357.950897 
	C402.291901,358.046570 401.599945,355.926880 401.617554,352.582336 
	C401.634674,349.335205 402.556549,347.639252 406.145599,347.658447 
	C423.796814,347.752899 441.448822,347.751282 459.100250,347.690552 
	C462.611420,347.678467 463.204041,349.666138 463.198547,352.516327 
	C463.192902,355.448334 462.809814,357.933380 459.044739,357.933868 
	C455.214844,357.934326 451.384949,357.966431 447.068512,357.987213 
z"/>
<path fill="#000000" opacity="1.000000" stroke="none" 
	d="
M379.807678,520.740173 
	C382.331665,518.924500 383.300385,516.803162 383.114807,514.058899 
	C382.834229,509.910400 383.666992,505.746613 382.904388,501.593628 
	C382.253082,498.046692 380.077271,496.215027 376.620972,496.578552 
	C373.295013,496.928406 369.705627,497.628265 369.520325,502.091614 
	C369.333923,506.582062 369.448700,511.084351 369.384888,515.580811 
	C369.350098,518.030273 371.066620,518.982788 372.857483,519.985229 
	C374.079987,520.669556 375.019745,521.691162 374.470459,523.242676 
	C374.024078,524.503540 372.830536,524.890137 371.640381,524.923828 
	C367.977661,525.027283 364.312225,525.071167 360.648010,525.062927 
	C359.268402,525.059814 357.959595,524.671997 357.429108,523.183167 
	C356.951874,521.843872 357.915558,521.090820 358.686005,520.184998 
	C361.901886,516.404175 362.490112,503.002014 359.726135,498.780457 
	C358.363892,496.699799 356.484161,495.918854 354.138397,496.608887 
	C351.613190,497.351715 348.481323,497.824738 348.284821,501.157837 
	C347.991364,506.136108 348.183319,511.144531 348.216522,516.139832 
	C348.231873,518.445740 350.075165,519.055359 351.772217,519.798706 
	C353.041962,520.354858 354.264557,521.128357 353.807220,522.759399 
	C353.433167,524.093628 352.126465,524.211243 350.937897,524.286255 
	C346.950684,524.537842 342.965790,524.877319 338.974487,524.992676 
	C336.463440,525.065186 334.385223,523.082947 336.504791,521.451965 
	C340.600677,518.300110 339.634277,514.379089 339.577850,510.566803 
	C339.504852,505.635895 341.311584,499.990509 335.290741,496.808533 
	C334.578613,496.432159 334.503601,495.297028 334.928223,494.514343 
	C336.640381,491.358673 339.843842,490.109406 342.842438,488.771515 
	C345.621033,487.531738 346.423615,490.324341 347.844696,491.918457 
	C350.995117,490.847137 353.719879,488.769592 357.112183,488.339539 
	C359.134827,488.083130 361.453522,487.471222 362.929596,488.777832 
	C366.953003,492.339233 370.601074,490.656372 374.791809,489.128174 
	C384.061493,485.747833 390.291748,489.632324 391.442047,499.373016 
	C392.005035,504.140137 391.877197,508.996979 391.917664,513.814453 
	C391.940460,516.523987 392.410248,518.747070 395.391571,519.688416 
	C396.894257,520.162842 398.230133,521.113159 397.721466,522.958923 
	C397.220215,524.777649 395.644806,524.846436 394.055176,524.657410 
	C390.400421,524.222839 386.763855,524.288696 383.095245,524.714966 
	C380.633484,525.001099 378.636444,524.300171 379.807678,520.740173 
z"/>
<path fill="#000000" opacity="1.000000" stroke="none" 
	d="
M368.012268,345.198669 
	C367.873291,340.962433 368.053131,337.747559 373.318512,337.768097 
	C377.369781,337.783936 379.095337,339.164978 379.018829,343.271210 
	C378.873108,351.093445 379.094940,358.923126 378.913025,366.743866 
	C378.827881,370.405121 380.188904,372.010162 383.851929,371.725555 
	C385.340973,371.609833 386.854767,371.813812 388.344116,371.700104 
	C391.783234,371.437653 394.448181,371.402771 394.399170,376.353149 
	C394.354370,380.877960 392.639069,382.066681 388.467621,382.002899 
	C378.663422,381.852936 378.927704,380.797882 378.915924,391.903259 
	C378.909576,397.894806 378.650085,403.888641 378.757965,409.876923 
	C378.844482,414.678192 375.837250,414.363464 372.465515,414.502319 
	C368.609924,414.661072 368.030823,412.615021 368.032532,409.567535 
	C368.044678,388.268677 368.019104,366.969849 368.012268,345.198669 
z"/>
<path fill="#000000" opacity="1.000000" stroke="none" 
	d="
M324.840820,411.277557 
	C318.054565,406.569855 317.986481,405.068451 323.112457,399.595245 
	C332.210632,389.880798 337.020294,378.248291 337.669037,364.976471 
	C337.936768,359.499969 337.876831,353.999817 337.758392,348.514893 
	C337.683441,345.043701 339.217834,343.771698 342.558014,343.816833 
	C345.748291,343.859985 348.047272,344.385651 348.170227,348.353333 
	C348.411621,356.141449 347.504730,363.976959 349.288330,371.710449 
	C351.429901,380.996063 354.931885,389.536011 362.710938,395.532471 
	C367.291809,399.063629 363.772705,401.736206 362.010376,404.318542 
	C359.517181,407.971710 357.772736,404.506592 356.158539,403.087494 
	C350.618988,398.217438 346.938293,391.932648 343.395477,384.907227 
	C338.978546,395.361359 334.050201,404.697571 324.840820,411.277557 
z"/>
<path fill="#000000" opacity="1.000000" stroke="none" 
	d="
M257.575500,523.666565 
	C253.371490,521.077942 253.231720,516.764648 251.966614,513.063965 
	C251.541794,511.821350 251.603760,510.349945 253.015045,509.521576 
	C254.581940,508.601837 255.966095,509.189117 257.032684,510.388092 
	C258.246399,511.752502 259.221069,513.327515 260.411499,514.715088 
	C263.863190,518.738464 269.642273,520.265198 274.485199,518.507080 
	C279.895538,516.543030 280.693512,508.621490 275.554626,504.474548 
	C271.556030,501.247803 266.982605,498.742493 262.752228,495.790985 
	C259.198700,493.311707 255.589066,490.748810 253.940750,486.515930 
	C249.979980,476.344727 256.740173,465.866516 267.817108,464.934937 
	C270.642120,464.697357 273.461639,464.874023 276.248047,465.591644 
	C283.197754,467.381531 285.856659,471.150330 285.152191,478.298798 
	C284.994263,479.901062 284.588562,481.321075 282.832550,481.725433 
	C281.247833,482.090363 280.421509,480.975006 279.692505,479.797119 
	C278.119476,477.255615 276.744049,474.568298 274.074402,472.898376 
	C270.120850,470.425293 264.374725,470.983978 262.251099,474.104462 
	C259.907898,477.547638 260.986267,482.632843 265.074249,485.448944 
	C269.593933,488.562408 274.484680,491.136719 279.009064,494.244019 
	C287.557434,500.114868 289.862885,509.383270 284.860199,517.796631 
	C280.997040,524.293579 274.400391,525.665344 267.590729,525.916138 
	C264.312714,526.036926 260.942413,525.458923 257.575500,523.666565 
z"/>
<path fill="#000000" opacity="1.000000" stroke="none" 
	d="
M481.558014,418.389282 
	C477.946716,418.795990 476.677917,417.456604 476.688385,414.180481 
	C476.764404,390.404602 476.784332,366.628113 476.667572,342.852539 
	C476.647369,338.733917 478.618408,337.832123 482.197449,337.771301 
	C485.828705,337.709595 487.319183,339.102325 487.274170,342.738037 
	C487.165100,351.548523 487.356262,360.363464 487.190125,369.172150 
	C487.125305,372.606567 488.346588,374.091858 491.792389,373.898804 
	C494.112213,373.768829 496.462616,374.071136 498.770172,373.860535 
	C502.858246,373.487396 504.379211,375.083252 504.352203,379.256805 
	C504.326202,383.269501 502.765869,384.330872 498.977570,384.321381 
	C487.221863,384.291870 487.222076,384.419617 487.211365,396.230316 
	C487.206238,401.883362 487.068756,407.540253 487.236847,413.188110 
	C487.351044,417.025635 485.873932,418.823395 481.558014,418.389282 
z"/>
<path fill="#000000" opacity="1.000000" stroke="none" 
	d="
M526.993835,476.993469 
	C537.451782,482.311829 541.795715,489.492096 540.531555,499.508667 
	C539.451294,508.068298 535.202698,514.050598 526.572754,516.402649 
	C525.494080,516.696655 524.445129,517.099609 522.313232,517.806702 
	C526.783936,518.624023 530.180115,519.064575 533.482666,519.882874 
	C542.748230,522.178772 545.596313,531.234009 539.120422,538.177979 
	C533.404907,544.306702 526.058167,546.789124 517.826965,545.721497 
	C508.364532,544.494202 505.076538,535.987732 511.051483,528.468506 
	C512.737061,526.347229 513.909851,524.787415 512.295654,521.968018 
	C510.654541,519.101562 513.110229,517.064880 515.037476,514.864868 
	C506.713074,507.330231 502.867310,498.505280 508.074921,487.727753 
	C511.662262,480.303406 517.756836,476.522766 526.617065,477.027588 
	C527.027710,477.009888 526.993835,476.993469 526.993835,476.993469 
M534.559326,507.572113 
	C539.003784,501.575836 538.999329,495.249542 535.753296,488.085846 
	C533.761597,484.663361 531.113342,482.040894 526.428589,480.665161 
	C518.999817,479.532349 514.382385,481.578186 510.878632,487.554932 
	C507.077881,494.038177 507.494293,501.203796 512.465820,507.497437 
	C519.271545,515.147095 527.099976,515.325134 534.559326,507.572113 
M530.016235,537.887085 
	C530.738281,537.486206 531.494080,537.135254 532.175476,536.674255 
	C533.716553,535.631836 535.415588,534.334656 535.153931,532.410828 
	C534.840454,530.104553 532.503174,529.680359 530.580200,529.265869 
	C528.319275,528.778503 525.971375,528.672546 523.730347,528.120239 
	C519.323608,527.034424 517.644165,529.179016 517.167664,533.162292 
	C516.639526,537.576965 518.796082,539.306946 522.914795,539.028992 
	C525.046570,538.885132 527.160583,538.478638 530.016235,537.887085 
z"/>
<path fill="#000000" opacity="1.000000" stroke="none" 
	d="
M288.702820,400.614075 
	C288.337189,398.462280 289.783936,397.665741 290.853699,396.681732 
	C301.852936,386.563721 306.061432,373.583740 306.666016,359.107788 
	C306.797882,355.949310 306.847534,352.768860 306.632477,349.619202 
	C306.377289,345.882233 307.645691,344.013885 311.640594,344.063324 
	C315.448853,344.110474 316.371979,346.056274 316.368866,349.462769 
	C316.361816,357.258362 315.719482,365.076141 318.033569,372.771881 
	C319.170593,376.553253 320.842743,379.871552 323.337494,382.816132 
	C327.657288,387.914764 327.510071,389.257660 321.643677,394.341217 
	C316.943085,391.737366 315.028351,386.746124 311.757080,382.348053 
	C308.606445,389.100922 305.182251,395.465912 300.528137,401.057251 
	C294.582672,408.199890 294.574158,408.192810 288.702820,400.614075 
z"/>
<path fill="#000000" opacity="1.000000" stroke="none" 
	d="
M485.532471,488.578583 
	C492.989227,488.509552 495.843170,490.768402 497.496094,497.570557 
	C498.735077,502.669128 498.066406,507.846039 498.178589,512.985229 
	C498.247559,516.146790 498.362610,519.010376 502.078796,520.134277 
	C503.248566,520.488037 504.105011,521.419983 503.921417,522.771851 
	C503.702484,524.384094 502.431549,524.949158 501.025543,524.970703 
	C497.034698,525.031921 493.010590,525.281677 489.060455,524.871399 
	C486.087616,524.562683 484.930786,522.987793 487.493988,520.187683 
	C490.329651,517.089966 490.798584,502.666107 488.397430,499.236542 
	C486.481323,496.499847 483.902374,496.209869 480.875702,497.099579 
	C478.053711,497.929138 476.041718,499.251129 476.100098,502.556641 
	C476.173492,506.716370 476.233368,510.878143 476.180664,515.037537 
	C476.150574,517.412903 477.366638,518.684387 479.410553,519.517578 
	C480.855865,520.106750 482.219421,520.992126 481.698029,522.838013 
	C481.175507,524.687866 479.492523,524.485107 477.982086,524.561523 
	C474.661041,524.729370 471.346619,525.035645 468.024963,525.180847 
	C466.552582,525.245239 464.867035,525.371704 464.126709,523.664612 
	C463.479889,522.173096 464.634033,521.332153 465.514862,520.279358 
	C469.191162,515.885193 468.497681,501.914917 464.453491,497.788605 
	C463.275726,496.586975 462.335052,495.206146 463.852936,493.983978 
	C466.294830,492.017761 468.865692,490.024139 471.707153,488.791351 
	C474.911621,487.400970 474.730927,490.800323 475.797791,492.796295 
	C478.924438,491.417847 481.573212,488.883118 485.532471,488.578583 
z"/>
<path fill="#000000" opacity="1.000000" stroke="none" 
	d="
M441.692291,503.755737 
	C444.328247,502.067535 443.784637,499.839508 443.345520,497.745605 
	C443.063965,496.403168 442.132599,495.343506 440.767487,494.917572 
	C439.088593,494.393677 438.417755,495.719574 437.681244,496.817749 
	C437.126923,497.644196 436.744751,498.626251 436.062622,499.319244 
	C434.100159,501.312988 431.650360,502.116699 429.412445,500.153137 
	C427.059845,498.088959 427.730408,495.675934 429.837189,493.667328 
	C433.468170,490.205505 437.817200,488.237305 442.825470,488.075531 
	C448.279053,487.899384 451.461151,491.367188 451.920776,497.738831 
	C452.338715,503.532104 451.263824,509.356659 452.151978,514.949890 
	C453.031891,516.655518 454.664551,515.900574 455.808472,516.472839 
	C457.472748,517.305359 457.806824,518.599243 457.173889,520.207886 
	C455.953491,523.309570 449.350372,525.874451 446.619141,523.937622 
	C444.579834,522.491455 443.132446,522.941101 441.176636,523.751404 
	C437.772278,525.161926 434.188873,526.324097 430.704681,523.951111 
	C424.686890,519.852600 424.727234,512.526367 430.745972,508.122467 
	C433.909760,505.807526 437.716675,505.079071 441.692291,503.755737 
M437.191620,517.585754 
	C443.506165,517.925537 444.870331,515.997314 442.699799,509.800140 
	C436.095367,510.637451 434.521362,512.533203 437.191620,517.585754 
z"/>
<path fill="#000000" opacity="1.000000" stroke="none" 
	d="
M299.097473,512.334839 
	C302.004028,507.107788 307.048615,505.991302 311.784180,504.565857 
	C314.937561,503.616638 316.181580,501.883575 315.590759,498.712860 
	C315.266815,496.974274 314.532043,495.485138 312.744965,494.947021 
	C310.818359,494.366943 310.156616,496.029633 309.350525,497.224579 
	C308.407166,498.623047 307.445587,499.969086 305.827240,500.639679 
	C303.961761,501.412659 302.138885,501.355194 300.880615,499.635986 
	C299.682800,497.999451 299.618591,496.079346 301.130585,494.608276 
	C305.606506,490.253326 310.797974,487.520294 317.278259,488.547333 
	C321.100952,489.153168 322.752441,491.873108 323.470856,495.446167 
	C324.508484,500.606628 323.087341,505.728333 323.382080,510.875763 
	C323.540619,513.643677 322.717194,516.755493 327.321594,516.626831 
	C329.097931,516.577332 329.764374,518.198120 329.246613,519.932007 
	C328.480011,522.498901 321.591492,526.098633 319.697449,524.417419 
	C316.443665,521.529175 313.782928,523.625916 310.952515,524.448486 
	C307.346649,525.496399 304.025360,525.609253 301.296417,522.602539 
	C298.707458,519.750061 297.023895,516.618652 299.097473,512.334839 
M315.594696,511.174103 
	C313.250854,507.249634 310.993134,510.415283 309.087921,511.528320 
	C307.262329,512.594788 306.476959,514.856995 307.990021,516.696228 
	C309.571747,518.619141 311.921661,518.196411 313.941925,517.216370 
	C316.229156,516.106750 315.548462,513.843628 315.594696,511.174103 
z"/>
<path fill="#000000" opacity="1.000000" stroke="none" 
	d="
M416.101959,499.392273 
	C416.138336,509.324615 416.273926,518.803711 416.098297,528.277039 
	C415.963318,535.557129 412.901825,541.447083 406.603058,545.371521 
	C405.131927,546.288086 403.297821,547.810181 401.712799,545.928528 
	C400.213226,544.148315 401.548920,542.406555 402.930817,541.176025 
	C406.889587,537.651062 407.893829,533.198669 407.754120,528.120239 
	C407.571350,521.474731 407.723816,514.819824 407.744232,508.168976 
	C407.755920,504.368835 408.263580,500.526306 404.340149,497.886047 
	C402.812317,496.857941 402.752563,494.625763 404.311493,493.532745 
	C407.012360,491.639069 409.928436,489.937500 412.972321,488.685455 
	C415.280731,487.736023 415.926361,489.668365 415.586243,491.518585 
	C415.117218,494.070099 415.761108,496.476257 416.101959,499.392273 
z"/>
<path fill="#000000" opacity="1.000000" stroke="none" 
	d="
M527.046265,477.016052 
	C524.535400,475.773743 521.907715,475.985016 519.268799,476.525269 
	C517.414856,476.904816 514.920349,478.304169 514.644165,475.074707 
	C514.425964,472.522186 516.253418,470.763397 518.959595,470.565857 
	C520.062561,470.485321 521.202820,470.915680 522.602844,471.162384 
	C521.828247,469.774231 520.523743,469.562042 519.445984,469.019897 
	C518.065674,468.325623 515.682373,468.263672 516.364014,465.936859 
	C516.985168,463.816498 519.033081,463.724884 520.944824,464.112274 
	C521.702515,464.265808 522.421326,464.611481 523.402100,464.955322 
	C523.491760,463.647003 523.518311,462.679382 523.632996,461.722321 
	C523.802368,460.308350 524.336426,459.118896 525.948792,458.907623 
	C527.474731,458.707642 528.404175,459.596924 529.183899,460.777710 
	C531.543640,464.351257 530.710388,472.948090 527.307861,476.808350 
	C526.993835,476.993469 527.027710,477.009888 527.046265,477.016052 
z"/>
<path fill="#000000" opacity="1.000000" stroke="none" 
	d="
M407.808868,471.089661 
	C409.696320,467.749207 412.053589,466.160004 415.331696,468.271149 
	C417.958374,469.962769 418.291779,472.652740 417.025879,475.337219 
	C415.712891,478.121460 413.443848,480.114868 410.250183,478.925476 
	C406.769257,477.629120 406.509064,474.645111 407.808868,471.089661 
z"/>
<path fill="#000000" opacity="1.000000" stroke="none" 
	d="
M547.308472,498.200989 
	C545.753296,496.512665 543.056946,496.368591 542.530823,493.202393 
	C546.917175,494.768433 550.276306,496.754395 553.046326,500.448303 
	C549.589783,503.421844 545.826416,504.734802 541.370605,506.098907 
	C541.766602,502.483337 544.521851,502.611359 546.306763,501.606750 
	C547.557434,500.902863 550.173828,500.630615 547.308472,498.200989 
z"/>
<path fill="#000000" opacity="1.000000" stroke="none" 
	d="
M353.772156,190.992004 
	C346.439728,171.417877 348.259399,153.402908 362.350861,138.007126 
	C380.019318,118.703278 406.317932,120.831635 421.554199,142.176804 
	C436.120605,162.583511 433.041351,190.766785 414.418732,207.485245 
	C397.407806,222.756821 371.128632,218.708282 358.062134,198.753433 
	C356.516144,196.392395 355.291992,193.820602 353.772156,190.992004 
M369.346497,135.795364 
	C351.090515,150.205597 348.700043,177.028809 359.406555,194.530457 
	C373.093903,216.904877 401.720490,219.221527 417.782776,199.012772 
	C429.553223,184.203751 430.705170,162.609909 420.576324,146.646332 
	C408.917389,128.271317 388.223816,123.664497 369.346497,135.795364 
z"/>
<path fill="#000000" opacity="1.000000" stroke="none" 
	d="
M527.147827,481.023499 
	C531.113342,482.040894 533.761597,484.663361 535.925720,488.837708 
	C538.295837,496.051758 537.442200,502.166626 534.003906,507.987274 
	C527.099976,515.325134 519.271545,515.147095 512.114258,506.893738 
	C505.746460,491.470093 512.521729,480.343323 527.147827,481.023499 
M516.340515,486.746033 
	C514.438782,488.253174 513.268616,490.320923 512.658447,492.552307 
	C511.264313,497.650696 511.832031,502.408325 515.797241,506.370361 
	C518.738770,509.309570 522.188782,510.618317 526.222473,509.383301 
	C532.992859,507.310364 536.661499,498.494293 533.703552,491.747681 
	C530.551331,484.558075 524.249451,482.510162 516.340515,486.746033 
z"/>
<path fill="#000000" opacity="1.000000" stroke="none" 
	d="
M384.625580,155.276321 
	C391.185455,152.940292 395.500763,153.909119 398.856232,158.183151 
	C402.726013,163.112305 403.132629,169.792206 399.880798,175.014542 
	C397.034424,179.585693 392.305054,181.483627 386.962524,180.198654 
	C378.777710,178.230042 375.480042,165.365494 381.359741,158.175629 
	C382.190613,157.159607 383.310211,156.379669 384.625580,155.276321 
z"/>
<path fill="#000000" opacity="1.000000" stroke="none" 
	d="
M381.233368,187.191681 
	C377.963501,188.608139 376.023987,187.464417 375.054291,184.680298 
	C374.341797,182.634659 374.761047,180.657562 376.722931,179.437469 
	C378.420441,178.381790 380.339844,178.341553 381.745392,179.859711 
	C383.892731,182.179062 383.580566,184.649872 381.233368,187.191681 
z"/>
<path fill="#000000" opacity="1.000000" stroke="none" 
	d="
M519.788696,495.901184 
	C520.809021,493.460907 522.267761,492.274048 524.568726,493.312042 
	C526.201111,494.048401 527.177063,495.550842 526.886780,497.339722 
	C526.167175,501.773376 521.963196,500.837128 519.371094,502.398651 
	C516.978821,499.940369 520.264893,498.283356 519.788696,495.901184 
z"/>
</svg>